<svg xmlns="http://www.w3.org/2000/svg" viewBox="0 0 512 512" shape-rendering="crispEdges">
  <defs>
    <linearGradient id="bg" x1="0" x2="1" y1="0" y2="1">
      <stop offset="0" stop-color="#1a0f2e"/>
      <stop offset="1" stop-color="#0a0716"/>
    </linearGradient>
  </defs>
  <rect width="512" height="512" rx="64" fill="url(#bg)"/>
  <g transform="translate(256,256) scale(2.5)">
    <rect x="-44" y="-44" width="20" height="20" fill="#6b3a1c"/>
    <rect x="24" y="-44" width="20" height="20" fill="#6b3a1c"/>
    <rect x="-44" y="-30" width="88" height="60" fill="#c8854a"/>
    <rect x="-44" y="-30" width="88" height="10" fill="#e0a566"/>
    <rect x="-32" y="-10" width="64" height="36" fill="#1a0d05"/>
    <rect x="-22" y="-4" width="10" height="10" fill="#fff"/>
    <rect x="12" y="-4" width="10" height="10" fill="#fff"/>
    <rect x="-18" y="0" width="6" height="6" fill="#000"/>
    <rect x="14" y="0" width="6" height="6" fill="#000"/>
    <rect x="-6" y="18" width="12" height="10" fill="#ff5a82"/>
  </g>
  <circle cx="80" cy="80" r="14" fill="#ff3aa1"/>
  <circle cx="432" cy="80" r="14" fill="#4cc9f0"/>
  <circle cx="80" cy="432" r="14" fill="#5ef38c"/>
  <circle cx="432" cy="432" r="14" fill="#ffd23f"/>
</svg>
